<svg width="64" height="64" viewBox="0 0 64 64" xmlns="http://www.w3.org/2000/svg">
<defs>
  <linearGradient id="g1" x1="0%" y1="0%" x2="0%" y2="100%">
    <stop offset="0%" style="stop-color:#06b6d4"/>
    <stop offset="100%" style="stop-color:#0891b2"/>
  </linearGradient>
  <linearGradient id="g2" x1="0%" y1="0%" x2="0%" y2="100%">
    <stop offset="0%" style="stop-color:#8b5cf6"/>
    <stop offset="100%" style="stop-color:#7c3aed"/>
  </linearGradient>
</defs>
<rect width="64" height="64" fill="#ffffff" rx="12"/>
<g transform="translate(32,32)">
  <ellipse cx="0" cy="14" rx="16" ry="3" fill="url(#g1)"/>
  <rect x="-16" y="14" width="32" height="5" fill="url(#g1)"/>
  <ellipse cx="0" cy="19" rx="16" ry="3" fill="#0284c7"/>
  
  <ellipse cx="0" cy="7" rx="14" ry="2.5" fill="url(#g2)"/>
  <rect x="-14" y="7" width="28" height="4" fill="url(#g2)"/>
  <ellipse cx="0" cy="11" rx="14" ry="2.5" fill="#7c3aed"/>
  
  <ellipse cx="0" cy="0" rx="13" ry="2.3" fill="url(#g1)"/>
  <rect x="-13" y="0" width="26" height="4" fill="url(#g1)"/>
  <ellipse cx="0" cy="4" rx="13" ry="2.3" fill="#0284c7"/>
  
  <circle cx="0" cy="-4" r="7" fill="url(#g1)"/>
  <text x="0" y="1" text-anchor="middle" font-size="11" font-weight="800" fill="#fff">₹</text>
  
  <path d="M 18 -12 L 18 -20" stroke="#10b981" stroke-width="2.5" fill="none" stroke-linecap="round"/>
  <path d="M 15 -17 L 18 -20 L 21 -17" stroke="#10b981" stroke-width="2.5" fill="none" stroke-linecap="round" stroke-linejoin="round"/>
</g>
</svg>
